<?xml version="1.0" standalone="no"?>
<!DOCTYPE svg PUBLIC "-//W3C//DTD SVG 1.1//EN" "http://www.w3.org/Graphics/SVG/1.1/DTD/svg11.dtd">
<!--Generator: Xara Designer (www.xara.com), SVG filter version: 6.3.0.4-->
<svg stroke-width="0.501" stroke-linejoin="bevel" fill-rule="evenodd" xmlns:xlink="http://www.w3.org/1999/xlink" xmlns="http://www.w3.org/2000/svg" version="1.1" overflow="visible" width="67.5pt" height="67.5pt" viewBox="0 0 67.5 67.5">
 <defs>
  <linearGradient id="LinearGradient" gradientUnits="userSpaceOnUse" x1="0" y1="0" x2="19.127" y2="-12.495" gradientTransform="translate(29.495 24.59)">
   <stop offset="0" stop-color="#747ba9"/>
   <stop offset="1" stop-color="#8e53ff"/>
  </linearGradient>
  <linearGradient id="LinearGradient_1" gradientUnits="userSpaceOnUse" x1="0" y1="0" x2="19.127" y2="-12.495" gradientTransform="translate(29.495 24.59)">
   <stop offset="0" stop-color="#747ba9"/>
   <stop offset="1" stop-color="#8e53ff"/>
  </linearGradient>
  <linearGradient id="LinearGradient_2" gradientUnits="userSpaceOnUse" x1="0" y1="0" x2="18.08" y2="-4.767" gradientTransform="translate(29.495 24.59)">
   <stop offset="0" stop-color="#8e53ff"/>
   <stop offset="1" stop-color="#2b00ff"/>
  </linearGradient>
  <linearGradient id="LinearGradient_3" gradientUnits="userSpaceOnUse" x1="0" y1="0" x2="-2.559" y2="2.556" gradientTransform="translate(33.038 23.774)">
   <stop offset="0" stop-color="#ffffff"/>
   <stop offset="1" stop-color="#000000"/>
  </linearGradient>
  <linearGradient id="LinearGradient_4" gradientUnits="userSpaceOnUse" x1="0" y1="0" x2="-4.5" y2="6.467" gradientTransform="translate(53.713 30.401)">
   <stop offset="0" stop-color="#1c18c6"/>
   <stop offset="1" stop-color="#8e53ff"/>
  </linearGradient>
  <linearGradient id="LinearGradient_5" gradientUnits="userSpaceOnUse" x1="0" y1="0" x2="20.762" y2="-5.867" gradientTransform="translate(13.445 38.353)">
   <stop offset="0" stop-color="#ffffff"/>
   <stop offset="1" stop-color="#000000"/>
  </linearGradient>
  <linearGradient id="LinearGradient_6" gradientUnits="userSpaceOnUse" x1="0" y1="0" x2="5.544" y2="-9.104" gradientTransform="translate(47.245 60.492)">
   <stop offset="0" stop-color="#1c18c6"/>
   <stop offset="1" stop-color="#8e53ff"/>
  </linearGradient>
  <linearGradient id="LinearGradient_7" gradientUnits="userSpaceOnUse" x1="0" y1="0" x2="-11.049" y2="8.259" gradientTransform="translate(47.422 40.924)">
   <stop offset="0" stop-color="#1c18c6"/>
   <stop offset="1" stop-color="#8e53ff"/>
  </linearGradient>
 </defs>
 <g id="Document" fill="none" stroke="black" font-family="Times New Roman" font-size="16" transform="scale(1 -1)">
  <g id="Spread" transform="translate(0 -67.5)">
   <g id="Layer 1">
    <path d="M 0,67.5 L 0,0 L 67.5,0 L 67.5,67.5 L 0,67.5 Z" stroke-opacity="0.000000" fill="#e5e5e5" stroke="none" stroke-width="0.261" stroke-linejoin="miter" marker-start="none" marker-end="none" stroke-miterlimit="79.8403193612775" fill-opacity="0.000000"/>
    <g id="Group">
     <mask id="TranspMask">
      <rect x="-10%" y="-10%" width="120%" height="120%" fill="url(#LinearGradient_3)" stroke="none"/>
     </mask>
     <g id="Group_1" stroke="none" mask="url(#TranspMask)">
      <path d="M 32.93,26.908 L 41.812,18.161 C 42.556,17.429 42.505,16.205 41.719,15.407 C 40.927,14.612 39.694,14.543 38.962,15.269 L 29.884,24.203" fill="url(#LinearGradient)"/>
      <g id="Group_2">
       <path d="M 38.962,15.269 L 32.197,21.927 L 29.886,24.204 C 31.009,24.924 32.031,25.82 32.905,26.878 L 41.904,18.019 L 42.221,17.534 C 42.484,16.843 42.308,16.005 41.719,15.407 C 40.927,14.612 39.694,14.543 38.962,15.269 Z" marker-start="none" marker-end="none" fill="url(#LinearGradient_1)"/>
       <path d="M 38.962,15.269 L 32.197,21.927 L 29.886,24.204 C 31.009,24.924 32.031,25.82 32.905,26.878 L 41.904,18.019 L 42.221,17.534 C 42.484,16.843 42.308,16.005 41.719,15.407 C 40.927,14.612 39.694,14.543 38.962,15.269 Z" fill-rule="nonzero" stroke-width="0" stroke-linejoin="miter" marker-start="none" marker-end="none" stroke-miterlimit="79.8403193612775" fill="url(#LinearGradient_2)"/>
      </g>
     </g>
     <path d="M 15.696,42.073 C 19.474,45.997 25.726,46.115 29.65,42.337 C 33.574,38.558 33.692,32.306 29.914,28.382 C 26.135,24.458 19.883,24.34 15.959,28.119 C 12.035,31.897 11.917,38.149 15.696,42.073 Z" stroke="#009bff" stroke-width="3.075" stroke-linejoin="miter" marker-start="none" marker-end="none" stroke-miterlimit="79.8403193612775"/>
     <path d="M 15.696,42.073 C 19.474,45.997 25.726,46.115 29.65,42.337 C 33.574,38.558 33.692,32.306 29.914,28.382 C 26.135,24.458 19.883,24.34 15.959,28.119 C 12.035,31.897 11.917,38.149 15.696,42.073 Z" stroke="#4f3ae4" stroke-width="3.075" stroke-linejoin="miter" marker-start="none" marker-end="none" stroke-miterlimit="79.8403193612775"/>
     <path d="M 48.181,29.927 L 47.458,32.087 C 47.002,33.449 45.934,34.519 44.572,34.972 L 42.409,35.701 C 42.031,35.803 41.773,36.16 41.779,36.556 C 41.782,36.925 42.022,37.258 42.379,37.381 L 44.542,38.101 C 45.883,38.542 46.951,39.583 47.422,40.924 L 48.151,43.081 C 48.286,43.408 48.604,43.621 48.955,43.621 C 49.306,43.621 49.63,43.408 49.765,43.081 L 50.515,40.924 C 50.974,39.559 52.045,38.494 53.404,38.038 L 55.567,37.306 C 55.894,37.177 56.107,36.856 56.107,36.505 C 56.107,36.151 55.894,35.83 55.567,35.701 L 53.404,34.972 C 52.045,34.519 50.974,33.449 50.515,32.087 L 49.792,29.927 C 49.66,29.603 49.339,29.387 48.985,29.387 C 48.634,29.387 48.313,29.603 48.181,29.927 Z" stroke="none" fill-rule="evenodd" stroke-width="0.051" stroke-linejoin="miter" marker-start="none" marker-end="none" stroke-miterlimit="79.8403193612775" fill="url(#LinearGradient_4)"/>
     <mask id="TranspMask_1">
      <rect x="-10%" y="-10%" width="120%" height="120%" fill="url(#LinearGradient_5)" stroke="none"/>
     </mask>
     <g id="Group_3" stroke-linejoin="miter" stroke="#8e53ff" stroke-width="3.075" stroke-miterlimit="79.8403193612775" mask="url(#TranspMask_1)">
      <path d="M 15.696,42.073 C 19.474,45.997 25.726,46.115 29.65,42.337 C 33.574,38.558 33.692,32.306 29.914,28.382 C 26.135,24.458 19.883,24.34 15.959,28.119 C 12.035,31.897 11.917,38.149 15.696,42.073 Z" marker-start="none" marker-end="none"/>
     </g>
     <path d="M 49.672,46.549 L 49.243,47.836 C 48.97,48.649 48.331,49.288 47.518,49.558 L 46.228,49.993 C 46.003,50.056 45.85,50.269 45.853,50.503 C 45.853,50.725 45.997,50.923 46.21,50.995 L 47.5,51.427 C 48.301,51.691 48.94,52.312 49.219,53.11 L 49.657,54.4 C 49.735,54.595 49.924,54.721 50.134,54.721 C 50.347,54.721 50.539,54.595 50.617,54.4 L 51.067,53.11 C 51.34,52.297 51.979,51.661 52.789,51.388 L 54.082,50.953 C 54.277,50.875 54.403,50.683 54.403,50.473 C 54.403,50.263 54.277,50.071 54.082,49.993 L 52.789,49.558 C 51.979,49.288 51.34,48.649 51.067,47.836 L 50.635,46.549 C 50.557,46.354 50.365,46.225 50.152,46.225 C 49.945,46.225 49.753,46.354 49.672,46.549 Z" stroke="none" fill-rule="evenodd" stroke-width="0.03" stroke-linejoin="miter" marker-start="none" marker-end="none" stroke-miterlimit="79.8403193612775" fill="url(#LinearGradient_6)"/>
     <path d="M 36.991,40.294 L 36.409,42.034 C 36.037,43.138 35.17,44.005 34.069,44.368 L 32.321,44.959 C 32.018,45.043 31.808,45.334 31.814,45.649 C 31.814,45.952 32.009,46.219 32.3,46.315 L 34.045,46.903 C 35.131,47.26 35.998,48.103 36.373,49.183 L 36.967,50.932 C 37.075,51.196 37.333,51.367 37.615,51.367 C 37.903,51.367 38.164,51.196 38.269,50.932 L 38.881,49.183 C 39.25,48.082 40.117,47.218 41.215,46.852 L 42.967,46.258 C 43.231,46.156 43.402,45.895 43.402,45.61 C 43.402,45.325 43.231,45.064 42.967,44.959 L 41.215,44.368 C 40.117,44.005 39.25,43.138 38.881,42.034 L 38.293,40.294 C 38.188,40.027 37.927,39.853 37.639,39.853 C 37.36,39.853 37.099,40.027 36.991,40.294 Z" stroke="none" fill-rule="evenodd" stroke-width="0.039" stroke-linejoin="miter" marker-start="none" marker-end="none" stroke-miterlimit="79.8403193612775" fill="url(#LinearGradient_7)"/>
    </g>
   </g>
  </g>
 </g>
</svg>
